<?xml version="1.0" encoding="UTF-8"?>
<svg id="Layer_1" data-name="Layer 1" xmlns="http://www.w3.org/2000/svg" viewBox="0 0 1007.39 1007.39">
  <defs>
    <style>
      .cls-1 {
        fill: #122f1a;
      }
    </style>
  </defs>
  <path class="cls-1" d="M622.41,112.3c-20.26-38.93-44.73-62.5-51.09-68.47-24.22-22.7-48.49-36.11-65.41-43.83-23.35,13.47-80.71,50.09-116.13,115.97-4.45,8.28-8.54,17.03-12.19,26.24.03.73-.13,1.48-.48,2.12-.42.79-.84,1.59-1.26,2.39-1.87,5.01-3.62,10.15-5.2,15.44-.26.87-.5,1.73-.75,2.6-.53,2.49-1.05,4.98-1.65,7.46-.15.63-.41,1.14-.74,1.54-.27,1.08-.54,2.16-.79,3.22-4.38,18.86-6.13,36.54-6.43,52.3,8.47-5.52,20.18-12.44,34.8-19,9.79-4.4,35.62-15.25,71.16-20.24,39.35-5.53,69.76-.93,86.56,1.73,17.03,2.69,42.14,6.86,71.73,21.02,12.1,5.8,21.72,11.72,28.48,16.24-1.08-27.38-6.68-70.78-30.61-116.74Z"/>
  <path class="cls-1" d="M354.12,141.98c3.76-11.92,8.78-25.31,15.55-39.55,7.73-16.26,16.07-30.1,23.88-41.53-9.56-5.01-20.73-10.1-33.44-14.62-17.68-6.29-33.92-9.92-47.64-12.03-8.96,8.89-18.61,19.63-28.14,32.39-13.97,18.73-23.88,36.75-30.91,52.02,15.1.66,33.45,2.67,53.87,7.59,18.31,4.41,34.02,10.14,46.83,15.73Z"/>
  <path class="cls-1" d="M159.94,149.95c-6.69,19.06-13.17,44.33-14.81,74.41-1.7,31.09,2.45,55.12,4.44,65.16,4.49,22.6,11.33,41.06,17.4,54.63,12.03-2.79,25.28-5.31,39.61-7.24,12.89-1.74,25.03-2.78,36.28-3.33,8.58-14.37,20.35-31.39,36.28-48.87,17.11-18.77,34.19-32.79,48.5-42.96.53-11.96,1.97-25.99,5.18-41.45,3.41-16.4,8.01-30.57,12.59-42.21-27.65-12.45-51.96-17.82-68.86-20.36-20.39-3.07-58.35-8.34-101.44,6.29-6.51,2.21-11.74,4.4-15.18,5.93Z"/>
  <path class="cls-1" d="M126.62,232.93c-11.98,3.39-26.39,8.52-41.93,16.43-16.69,8.5-30.08,17.87-40.27,26.09-.55,8.48-.64,17.65,0,27.4,2.43,37.16,14.34,67.13,25.18,87.74,10.47-8.05,23.6-16.91,39.46-25.18,15.21-7.93,29.42-13.47,41.62-17.4-6.8-14.12-14.4-33.36-19.25-57.01-4.67-22.79-5.38-42.76-4.81-58.07Z"/>
  <path class="cls-1" d="M229.91,353.2c-17.7.31-42.33,2.57-70.34,11.11-9.67,2.95-37.77,12.13-68.44,32.55C40.97,430.25,13.41,474.07,0,499.81c7.68,15.77,20.17,37.3,39.98,59.24,6.19,6.86,20.48,21.92,42.21,37.39,17.77,12.66,57.85,37.94,114.4,46.64,13.9,2.14,25.51,2.77,33.32,2.97-10.62-17.65-24.07-44.29-32.58-78.86-11.09-45.04-8.61-82.45-6.22-102.01,6.32-51.71,25.66-90.24,38.8-111.98Z"/>
  <path class="cls-1" d="M62.2,603.1c-7.11,14.36-15,33.65-20.36,57.27-5.63,24.79-6.69,46.55-6.29,63.06,8.57,5.49,18.06,11.01,28.51,16.29,22.96,11.61,44.63,19.09,63.31,24.03.11-8.94.67-18.46,1.85-28.47,4.08-34.53,14.21-63.27,24.44-85.15-12.13-3.2-26.33-7.96-41.58-15.21-21.19-10.07-37.75-21.78-49.87-31.81Z"/>
  <path class="cls-1" d="M251.75,675.27c5.59,8.99,12.27,18.55,20.25,28.29,18.82,22.97,38.75,39.48,55.53,51.09.24,12.74,1.33,27.3,3.95,43.19,3.4,20.63,8.56,38.46,13.82,53.07-10.74,4.49-26.11,10.1-45.17,14.32-16.05,3.55-47.68,9-87.37,4.69-13.67-1.48-32.21-4.55-53.56-11.35-6.46-17.99-9.91-33.96-11.85-46.4-.82-5.24-3.7-24.84-2.72-50.87.82-21.81,3.99-38.3,5.18-44.15,2.98-14.58,8.24-33.9,18.02-55.53,14.28,4.99,26.26,7.51,34.8,8.89,8.45,1.36,16.53,2.09,28.88,3.21,8.39.76,15.37,1.26,20.23,1.58Z"/>
  <path class="cls-1" d="M247.56,889.1c14.09-.37,25.98-1.75,35.05-3.15,22.85-3.53,39.86-9.1,49.61-12.34,10.95-3.64,20-7.27,26.66-10.12,2.9,9.56,6.98,20.75,12.83,32.83,7.34,15.13,14.6,25.75,19.99,33.57,5.76,8.35,13.01,17.96,21.97,28.14-6.6,3.03-15.38,6.8-25.92,10.61-6.75,2.44-20.56,7.38-36.45,10.86-13.72,3-34.18,6.05-60.05,4.75-10.31-13.61-16.98-25.77-21.24-34.62-5.59-11.61-9.37-22.4-15.8-40.72-2.88-8.21-5.14-15.07-6.66-19.81Z"/>
  <path class="cls-1" d="M359.86,776.86c.16,13.01,1.39,30.02,5.55,49.49,1.27,5.91,6.12,27.54,18.14,54.04,12.49,27.53,26.23,46,29.25,50,4.75,6.3,20.12,26.04,45.54,46.28,17.51,13.94,34.37,23.79,48.39,30.73,14.28-7.09,33.12-18.09,52.68-34.8,4.96-4.24,19.46-16.95,35.17-36.65,27.27-34.19,39.62-66.12,42.58-74.05,12.58-33.73,15.8-63.9,16.29-84.95-27.83,17.55-53.46,26.68-71.45,31.64-33.53,9.25-60.45,9.55-77.75,9.63-15.61.07-35.17.03-60.35-5.55-7.6-1.68-30.15-7.08-57.01-20.36-11.25-5.56-20.36-11.07-27.03-15.43Z"/>
  <path class="cls-1" d="M601.62,955.93c7.62-8.58,15.59-18.66,23.32-30.36,15.44-23.37,25.02-45.79,31.1-64.05,11.5,5.33,24.74,10.59,39.65,15.11,26.3,7.96,50.15,11.28,69.57,12.47-5.1,13.87-12.31,30.06-22.58,47.2-13.86,23.12-29.03,40.83-41.84,53.68-16.92-2.41-31.38-6.05-42.95-9.63-6.77-2.09-20.46-6.62-37.02-14.44-7.8-3.68-14.31-7.19-19.25-10Z"/>
  <path class="cls-1" d="M686.89,754.89c12.59-8.39,22.6-16.64,30.11-23.45,3.06-2.77,16.26-14.85,31.1-33.57,7.33-9.24,13.02-17.53,17.15-23.94,8.8.03,18.25-.32,28.26-1.23,20.75-1.9,39.08-5.78,54.55-10.18,11.47,24.65,16.94,46.63,19.75,62.51,1.04,5.89,4.32,25.72,3.7,51.83-.51,21.67-3.48,38.31-4.94,45.66-2.84,14.3-6.49,26.45-9.87,36.04-13.28,4.4-29.11,8.45-47.14,10.86-9.99,1.34-28.1,3.16-50.83,1.76-23.95-1.48-41.61-5.84-45.93-6.94-17.42-4.43-31.73-10.22-42.45-15.3,5.39-12.71,8.73-24.07,10.86-33.07.76-3.22,4.26-18.34,5.43-39,.5-8.79.44-16.28.25-21.97Z"/>
  <path class="cls-1" d="M867.63,655.3c3.15,6.32,7.01,14.57,10.92,24.43,2.68,6.75,7.56,19.18,11.66,35.36,3.12,12.33,6.37,29.15,7.4,49.61,12.36-3.62,26.43-8.64,41.47-15.73,19.1-9.01,34.82-19.03,47.2-28.14.02-14.98-1.2-27.79-2.59-37.76-3.07-21.95-8.32-39.69-12.59-51.83-3.9-11.09-7.92-20.19-11.11-26.84-8.44,6.48-16.22,11.88-22.95,16.29-9.02,5.91-23.48,15.29-43.69,24.43-9.77,4.42-18.53,7.73-25.73,10.18Z"/>
  <path class="cls-1" d="M786.36,357.64c8.25,16.58,17.8,39.45,24.43,67.75,3.64,15.53,10.31,49.39,7.49,92.16-3.96,60.17-24.64,106.67-39.7,134.01,18.08-.38,44.25-2.81,74.05-12.54,12.44-4.06,53.1-18.4,93.67-54.79,31.84-28.56,50.55-58.98,61.09-79.77-12.72-26.94-27.46-46.21-38.5-58.7-50.92-57.6-114.83-74.79-136.61-80.34-18.69-4.76-34.69-6.81-45.91-7.77Z"/>
  <path class="cls-1" d="M858.93,347.89c4.37-10.93,8.54-23.13,12.09-36.53,8.14-30.71,10.54-58.48,10.61-80.96,11.1,2.5,23.53,6.1,36.78,11.34,24.86,9.84,44.41,22.24,58.74,33.09,0,9.47-.46,21.58-2.22,35.54-2.85,22.59-7.76,39.66-10.12,47.27-3.72,12.01-9.17,26.62-17.28,42.58-12.23-10.4-23.24-18.38-31.84-24.19-12.45-8.41-23.92-16.07-40.72-22.71-6.54-2.59-12.14-4.32-16.04-5.43Z"/>
  <path class="cls-1" d="M655.04,148.95c3.57,9.89,7.02,21.11,9.87,33.57,3.86,16.87,5.8,32.31,6.66,45.66,15.65,10.43,28.06,20.62,37.27,28.88,23.32,20.91,37.29,39.49,40.23,43.44,7.1,9.55,12.41,18.01,16.04,24.19,9.52.77,19.58,1.89,30.11,3.46,13.36,1.99,25.8,4.45,37.27,7.16,6.8-13.95,14.9-34.04,19.75-59.24,5.89-30.62,4.22-54.59,3.21-67.87-1.34-17.55-4.84-41.44-14.07-68.62-12.36-4.08-28.66-8.41-48.13-10.86-6.61-.83-27.41-3.18-54.55-.99-28.28,2.29-48.73,8.32-53.07,9.63-12.72,3.84-23.09,8.14-30.61,11.6Z"/>
  <path class="cls-1" d="M595.42,39.73c5.11,5.88,11.58,13.88,18.33,23.88,9.9,14.68,15.77,26.81,19.25,34.06,4.84,10.09,10.39,23.15,15.36,38.87,13.13-5.39,24.97-9.17,34.8-11.85,18.64-5.08,34.61-7.48,45.91-8.7,8.03-.87,14.87-1.28,19.99-1.48-3.28-14.76-7.35-27-10.92-36.28-9.82-25.57-21.18-42.76-24.43-47.57-3.77-5.57-7.17-10.04-9.63-13.14-6.9-.14-16.15-.03-27.03.93-12.15,1.07-31.55,3.67-54.42,10.92-7.28,2.31-16.61,5.62-27.21,10.37Z"/>
  <path class="cls-1" d="M332.71,292.36c-2.04,2.93-14.03,20.43-17.77,38.5-2.77,13.39-.37,23.99,0,25.3.76,2.74,1.33,3.71,2.47,6.79,1.54,4.14,4.57,14.29,5.65,27.64.5,6.22.32,10.53,0,18.76-.16,4.15-.8,18.22-4.66,43.93-2.33,15.5-3.6,23.74-4.99,23.69-1.35-.04-1.77-7.78-3.65-26.16-1.84-18.05-2.66-22.58-5.18-49.61-1.06-11.36-1.75-19.56,0-30.61.46-2.88,2.5-7.41,3.46-14.44.68-5.01.62-8.42.49-14.68-.23-11.76-1.56-12.78-2.22-13.08-.62-.29-2.7-.89-7.65,3.7-21.19,19.67-26.66,66.15-26.66,66.15-.69,5.83-1.45,14.41-1.48,24.93.76.15,2.05.52,3.16,1.58,2.35,2.24,1.72,6.26,1.61,7.25-1.31,10.96,3.42,21.85,3.87,32.88.33,7.96.19-3.52,5.43,56.52,1.29,14.8,2.82,34.06,5.92,72.56,1.2,14.86,3.85,29.58,5.18,44.43.2,2.25.62,7.01,2.22,13.16,2.74,10.49,9.27,26.25,13.57,25.59,4.48-.69,3.02-18.67,9.87-67.38,1.15-8.2,1-6.31,1.48-10.12,3.99-31.63.32-49.21,6.87-76.02,2.15-8.8,3.4-10.41,4.24-10.36,2.78.16,3.78,18.76,4.2,25.42,1.51,24.36,1.71,4.23,12.59,93.05,2.55,20.81,3.77,31.83,7.16,49.12,0,0,1.49,12.87,6.66,29.37,3.85,12.3,7.77,20.24,14.53,22.75.97.36,4.7,1.74,7.19,0,2.72-1.9,2.49-6.49,2.47-7.69-.84-40.85,10.83-81.11,12.59-121.93.22-5.09,2.53-26.51,7.16-69.36,8.16-75.63,8.72-66.57,15.8-131.18.4-3.69,2.28-20.89,5.92-43.32,0,0,5.51-33.94,12.22-54.05.2-.61,2-5.98,4.44-13.08,3.62-10.53,3.59-10.13,4.07-11.72,1.32-4.37,6.8-22.53-2.59-34.06-.73-.9-4.54-5.45-11.11-7.38-10.25-3.02-19.3,2.68-22.46,4.67-7.91,4.98-11.57,11.77-14.19,16.78-6.12,11.69-12.87,33.99-2.96,44.06,2.27,2.31,5.65,4.08,7.77,8.89,2.63,5.97,1.23,11.88.74,14.07-4.98,22.32-16.92,115.45-16.29,123.66.03.39.28,3.06-1.1,5.77-.28.55-1.59,3.12-2.97,3.12-2.66-.01-4.65-9.6-5.18-12.22-5.61-27.76-8.37-65.41-10.37-85.52-1.32-13.34-2.36-19.51-.71-29.61,1.78-10.86,8.53-16.02,11.44-30,1.2-5.74,1.27-9.59,1.48-16.29.45-14.61-1.82-17.13-2.86-18.06-.98-.87-4.24-3.37-11.73-1.93,5-3.22,11.52-7.13,19.39-11.11,2.76-1.39,9.83-4.88,20.49-9.01,8.67-3.36,23.96-9.28,44.8-13.52,5.89-1.2,13.96-2.62,23.69-3.64-3.6,6.11-7.31,13.4-10.61,21.84-1.99,5.1-4.83,13.26-9.01,34.55-2.8,14.27-5.34,27.22-7.03,45.41-.48,5.17.04.58-1.48,45.04-.13,3.68-.57,16.58,5.16,30.27,3.53,8.45,6.37,9.94,8.29,10.08,3.47.26,6.45-3.67,8.39-6.54,9.7-14.37,12.61-31.12,14.56-41.22,2.2-11.36,3.65-20.39,8.02-34.8.49-1.63.7-2.63,1.23-3.95,1.63-4.07,2.78-7.61,5.43-8.27.2-.05,1.03-.24,1.85,0,3.92,1.14,4.12,11.54,4.2,14.56.31,11.84,2.86,23.58,2.72,35.42-.19,15.1-.22,30.2-.49,45.29-.47,26.19-.04,26.9-.62,67.13-.18,12.34-.22,12.79-.37,24.06-.04,2.74-.33,25.92-.37,48.87-.07,39.22-5.06,78.4-3.77,117.6.1,3.01.39,8.55-2.74,14.03-2.96,5.2-6.44,5.87-10.41,11.28-3.56,4.86-4.59,9.54-5.66,14.44-3.02,13.77.29,25.06,1.48,28.63,2.01,6.03,4.3,12.91,11.11,18.23,6.4,5.01,13.44,5.01,13.33,5.82-.14,1.02-11.22,1.02-28.14-1.13-20.06-2.55-37.38-6.71-52.08-11.07-17.26-5.12-30.22-8.96-46.4-17.52-12.22-6.47-20.25-12.56-32.76-21.96-19.16-14.41-32.32-27.12-37.59-32.34-6.95-6.89-15.03-14.89-23.45-25.67-22.27-28.51-31.59-56.75-37.76-76.02-7.59-23.69-10.37-42.4-11.11-47.64-4.9-35.03-1.75-62.54-.25-73.3,4.98-35.64,16.19-61.08,22.46-75.03,11.03-24.56,22.83-41.89,29.37-50.84,14.5-19.84,26.69-30.64,31.74-34.91,3.7-3.13,6.91-5.59,9.23-7.3Z"/>
  <path class="cls-1" d="M765.63,445.29c-2.34-14.09-8.32-42.94-24.69-76.02-14.62-29.44-30.8-48.78-35.56-54.3-13.39-15.59-26.15-26.12-35.77-34.06-7.87-6.5-19.83-16.36-35.32-25.66-29.27-17.59-55.77-23.88-69.83-27.17-28.25-6.54-53.18-7.38-69.13-7.9-4.62-.17-8.46-.21-11.12-.24,1.82,1.5,4.62,3.46,8.39,4.72,5,1.64,9.16,1.29,11.61,1.01,9.9-1.01,18.18,1.43,32.1,4.9,3.39.84,5.84,1.57,15.04,3.92,8.64,2.2.35,0,11.12,2.48,5.73,1.36,7.76,1.89,10.63,1.26,3.32-.77,3.71-2.24,6.4-2.73,4.83-.87,9.27,2.69,11.12,4.2,11.99,9.69,19.34,49.16,20.73,56.78,6.12,33.81,7.62,44.62,8.88,56.26,0,0,1.08,10.14-1.22,44.93-.38,5.73-1.08,14.2-6.92,18.01-3.53,2.31-9.41,3.22-11.85.8-1.19-1.12-.91-2.31-2.45-5-1.64-2.83-3.64-4.41-4.23-4.93-4.9-4.51-6.85-21.43-7.62-27.41-3.32-25.42-7.55-22.1-8.15-36.89-.14-3.18-.28-11.61-5.98-16.12-1.01-.8-1.96-1.29-2.62-1.61-1.43,1.54-3.57,4.09-5.24,7.73-3.78,8.32-2.38,16.4-1.96,19.27,3.18,21.33.8,43.11,1.47,64.65.17,5.11.21,13.71.31,30.87.21,37.48-.21,66.26-.56,88.11-.45,30.21-.73,45.32-.98,49.34-.84,14.27-.35,31.57.66,66.16.11,4.62.38,10.94,4.09,17.27,1.29,2.13,2.2,2.97,7.34,9.9,3.22,4.3,6.08,8.29,6.68,9.13,7.2,10.52,2.52,37.45-14.09,55.04-3.6,3.81-10.42,9.97-21.47,14.51,12.45-2.34,28.25-6.19,45.91-12.8,9.69-3.6,30.25-11.92,53.92-27.13,22.83-14.69,37.66-28.78,41.12-32.1,3.57-3.43,14.2-13.88,25.91-29.2,25.87-33.78,37.9-65.88,42.06-77.9,10.7-31.08,13.46-57.31,14.34-71.58,1.05-16.96.7-37.55-3.08-60.49ZM746.5,583.02c-5.38,16.12-7.2,24.93-13.15,36.26-3.01,5.77-11.68,21.36-27.76,37.59-1.29,1.33-2.59,2.55-5.17,5-15.8,15-20.25,17.27-35.49,30.67,0,0-16.43,14.41-31.89,22.1-1.05.52-3.53,1.71-6.12.91-5.91-1.82-8.04-12.8-8.15-19.97-.18-14.02,7.34-18.11,14.44-37.24,3.39-9.13,4.55-16.26,6.85-30.53,1.33-8.22,1.75-13.5,3.32-42.2,1.4-25.07,2.1-37.62,2.59-50.91.35-8.43.84-21.89,1.12-37.59.38-22.03-.17-23.36-.73-73.29,0,0-.14-12.52-1.47-51.85,0,0-.17-5.04-3.22-30.35-.73-6.12-1.29-10.42-3.64-15.73-2.73-6.15-5.31-8.01-9.27-14.62-4.2-7.03-6.08-13.04-7.41-17.2-1.47-4.65-4.2-14.37-2.59-23.88.24-1.33.66-3.43,2.24-5.38,2.38-3.01,6.5-4.62,10.18-4.06,2.34.35,3.95,1.5,4.44,1.85,9.16,6.54,19.16,12.1,27.59,19.62,13.81,12.34,12.17,8.32,27.59,21.85,9.72,8.57,16.54,14.55,24.06,23.85,9.83,12.24,15.11,23.11,18.15,29.44,10.38,21.64,13.43,40,15.18,51.09,1.57,10.11,1.61,17.73,1.64,32.97.04,8.74-.35,14.37-3.46,18.57-.56.77-1.92,2.45-2.83,5.11-1.33,4.09-.66,7.76-.35,9.09,1.12,4.93,3.88,6.43,6.85,10.87,2.69,4.06,3.53,7.52,5.17,14.48,7.24,30.67-8.71,83.5-8.71,83.5Z"/>
  <path class="cls-1" d="M707.87,533.25c-1.8,15.37-.99,27.64-.99,27.64.86,13.06,1.33,41.56,0,50.6-.08.55-.72,4.76.99,9.38.66,1.8,1.05,2.85,1.97,3.21,3.12,1.22,9.85-6.24,13.33-14.07,1.99-4.48,2.41-7.95,3.21-15.53,1.5-14.26,2.25-21.4,2.47-25.44.35-6.7,1.41-29.75-4.2-39.24-.55-.93-2.11-3.5-5.18-5.18-.86-.47-4.37-2.4-7.16-1.23-3.34,1.4-4.06,6.6-4.44,9.87Z"/>
  <path class="cls-1" d="M703.43,378.74c.9,8.02-.01,16.21,1.23,24.19,1.94,12.42-1.16,10.18,0,35.29.8,17.24,1.88,10.06,2.04,19.25.09,5.43-.24,10.45,3.14,13.33.58.49,2.68,2.13,4.94,1.73.95-.17,5.06-1.25,7.9-16.04,1.46-7.62,2.09-16.32,0-36.78,0,0-1.13-11.07-4.69-27.7-1.49-6.96-3.87-16.95-9.38-18.95-.59-.21-2.6-.94-3.95,0-1.76,1.23-1.36,4.56-1.23,5.68Z"/>
</svg>